# xmcd
#
# Track frame offsets:
#	150
#	13650
#	26131
#	38052
#	51603
#	63660
#	75681
#	90666
#	103273
#	114591
#	124269
#	146326
#	158270
#	175810
#	188040
#	199316
#	214257
#	239177
#	266568
#	291328
#	301494
#	313265
#
# Disc length: 4445 seconds
#
# Revision: 0
# Processed by: cddbd v1.5.2PL0 Copyright (c) Steve Scherf et al.
# Submitted via: dBpowerAMP V4.0
#
DISCID=4f115b16
DTITLE=King Curtis - The Platinum Collection
DYEAR=2006
DGENRE=Soul
TTITLE0=Memphis Soul Stew
TTITLE1=Spanish Harlem
TTITLE2=In The Midnight Hour
TTITLE3=Knock On Wood
TTITLE4=Hold On I'm Coming
TTITLE5=Fa-Fa-Fa-Fa-Fa (Sad Song)
TTITLE6=I Heard It Through The Grape Vine
TTITLE7=Spooky
TTITLE8=The Look Of Love
TTITLE9=Michelle
TTITLE10=Honky Tonk
TTITLE11=The Dog (A.K.A Walking The Dog)
TTITLE12=Whiter Shade Of Pale
TTITLE13=Sittin' On The Dock Of A Bay
TTITLE14=Good To Me
TTITLE15=Ode To Billy Joe (Live @ Filmore West)
TTITLE16=Soul Serenade (Live @ Filmore West)
TTITLE17=I Stand Accused (Live @ Filmore West)
TTITLE18=Them Changes (Live @ Filmore West)
TTITLE19=Whole Lotta Love (Live @ Filmore West)
TTITLE20=Signed, Sealed, Delivered (Live @ Filmore West)
TTITLE21=Mr Bojangles (Live @ Filmore West)
EXTD=
EXTT0=
EXTT1=
EXTT2=
EXTT3=
EXTT4=
EXTT5=
EXTT6=
EXTT7=
EXTT8=
EXTT9=
EXTT10=
EXTT11=
EXTT12=
EXTT13=
EXTT14=
EXTT15=
EXTT16=
EXTT17=
EXTT18=
EXTT19=
EXTT20=
EXTT21=
PLAYORDER=
